<?xml version="1.0" encoding="UTF-8"?>
<svg width="700px" height="700px" viewBox="0 0 700 700" version="1.1" xmlns="http://www.w3.org/2000/svg" xmlns:xlink="http://www.w3.org/1999/xlink">
    <title>phecda_with_title_round</title>
    <g id="页面-1" stroke="none" stroke-width="1" fill="none" fill-rule="evenodd">
        <g id="phecda_with_title_round">
            <rect id="矩形" fill="#180083" x="0" y="0" width="700" height="700"></rect>
            <g id="编组" transform="translate(62.000000, 182.000000)">
                <circle id="椭圆形" fill="#FFFFFF" cx="18" cy="129" r="18"></circle>
                <circle id="椭圆形备份" fill="#FFFFFF" cx="132" cy="63" r="18"></circle>
                <circle id="椭圆形备份-2" fill="#FFFFFF" cx="224" cy="81" r="18"></circle>
                <circle id="椭圆形备份-3" fill="#FFFFFF" cx="338" cy="95" r="18"></circle>
                <circle id="椭圆形备份-5" fill="#FFFFFF" cx="535" cy="141" r="18"></circle>
                <circle id="椭圆形备份-6" fill="#FFFFFF" cx="535" cy="18" r="18"></circle>
                <polyline id="路径-2" stroke="#FFFFFF" stroke-width="6" opacity="0.45" points="18 129.058325 132.888889 62.8247455 223.731266 80.8884489 338.620155 95.6070221 381.515451 176 535 141.100794 535 18"></polyline>
                <path d="M381.365187,128 C383.874432,144.959172 387.65329,156.062597 392.70176,161.310275 C397.750229,166.557953 408.849643,170.919882 426,174.396063 C415.797718,174.421053 406.177601,176.544881 397.139648,180.767545 C388.101695,184.99021 382.843542,205.401028 381.365187,242 C380.364231,207.060109 375.326517,186.649291 366.252045,180.767545 C357.177573,174.8858 348.093558,172.001428 339,172.114432 C353.936502,171.009485 364.332769,167.4081 370.1888,161.310275 C376.044831,155.212451 379.770293,144.109026 381.365187,128 Z" id="路径" fill="#FFFFFF"></path>
            </g>
            <g id="编组-3" transform="translate(222.652000, 487.584000)" fill="#FFFFFF" fill-rule="nonzero">
                <g id="Phecda" transform="translate(2.532000, 0.000000)">
                    <path d="M0,1.008 L0,52.416 L5.904,52.416 L5.904,31.392 L20.952,31.392 C32.76,31.392 38.736,26.28 38.736,16.128 C38.736,6.048 32.832,1.008 21.024,1.008 L0,1.008 Z M5.904,6.12 L20.664,6.12 C24.768,6.12 27.792,6.912 29.808,8.64 C31.824,10.152 32.832,12.672 32.832,16.128 C32.832,19.584 31.824,22.104 29.88,23.76 C27.864,25.416 24.84,26.28 20.664,26.28 L5.904,26.28 L5.904,6.12 Z" id="形状"></path>
                    <path d="M51.504,0 L51.504,52.416 L57.264,52.416 L57.264,31.176 C57.264,27.72 58.2,24.768 60.144,22.464 C62.016,20.16 64.392,19.008 67.272,19.008 C70.368,19.008 72.744,19.944 74.472,21.816 C76.056,23.688 76.92,26.352 76.92,29.808 L76.92,52.416 L82.68,52.416 L82.68,28.944 C82.68,24.192 81.528,20.52 79.224,18 C76.92,15.408 73.536,14.184 69.216,14.184 C66.696,14.184 64.464,14.76 62.448,15.912 C60.288,17.136 58.56,18.936 57.264,21.312 L57.264,0 L51.504,0 Z" id="路径"></path>
                    <path d="M112.872,14.184 C107.472,14.184 103.224,16.128 100.056,20.016 C96.888,23.688 95.376,28.296 95.376,33.768 C95.376,39.816 96.96,44.568 100.272,48.168 C103.44,51.624 107.76,53.424 113.088,53.424 C117.912,53.424 121.872,51.984 124.968,49.248 C127.488,46.944 129.144,44.064 130.008,40.464 L124.248,40.464 C123.312,43.056 122.088,45 120.504,46.296 C118.632,47.808 116.112,48.6 113.088,48.6 C109.56,48.6 106.752,47.448 104.736,45.144 C102.72,42.84 101.64,39.6 101.352,35.424 L130.728,35.424 C130.584,28.944 129.144,23.832 126.408,20.232 C123.384,16.2 118.848,14.184 112.872,14.184 Z M113.016,19.008 C120.072,19.008 124.032,22.968 124.752,30.96 L101.496,30.96 C101.856,27.288 103.008,24.408 105.024,22.248 C107.04,20.088 109.704,19.008 113.016,19.008 Z" id="形状"></path>
                    <path d="M159.552,14.184 C154.008,14.184 149.616,16.128 146.448,20.088 C143.496,23.688 142.056,28.296 142.056,33.984 C142.056,39.672 143.496,44.28 146.448,47.808 C149.544,51.552 153.864,53.424 159.48,53.424 C164.088,53.424 167.76,52.2 170.568,49.824 C173.448,47.376 175.248,43.704 176.112,38.952 L170.352,38.952 C169.488,45.36 165.816,48.6 159.48,48.6 C155.736,48.6 152.856,47.232 150.912,44.64 C148.896,42.048 147.96,38.448 147.96,33.912 C147.96,29.376 148.968,25.776 150.984,23.112 C153.072,20.376 155.952,19.008 159.552,19.008 C162.504,19.008 164.88,19.656 166.752,21.096 C168.552,22.536 169.704,24.696 170.208,27.576 L175.896,27.576 C175.248,23.04 173.52,19.656 170.64,17.424 C167.832,15.264 164.16,14.184 159.552,14.184 Z" id="路径"></path>
                    <path d="M216.384,0 L216.384,22.032 C213.504,16.776 209.4,14.184 204.072,14.184 C198.744,14.184 194.64,16.128 191.616,20.16 C188.808,23.76 187.44,28.224 187.44,33.696 C187.44,39.312 188.808,43.92 191.616,47.52 C194.64,51.408 198.888,53.424 204.36,53.424 C209.976,53.424 214.152,51.048 216.744,46.296 L216.744,52.416 L222.144,52.416 L222.144,0 L216.384,0 Z M205.296,18.936 C208.608,18.936 211.344,20.232 213.432,22.968 C215.448,25.632 216.528,29.16 216.528,33.48 L216.528,34.2 C216.528,38.376 215.592,41.76 213.792,44.352 C211.704,47.232 208.824,48.672 205.08,48.672 C201.048,48.672 198.024,47.16 196.008,44.28 C194.208,41.688 193.344,38.16 193.344,33.696 C193.344,29.232 194.208,25.776 196.08,23.256 C198.096,20.376 201.192,18.936 205.296,18.936 Z" id="形状"></path>
                    <path d="M253.272,14.184 C248.808,14.184 245.28,15.048 242.544,16.776 C239.52,18.648 237.576,21.6 236.784,25.488 L242.472,25.92 C243.048,23.544 244.272,21.744 246.216,20.592 C247.944,19.44 250.176,18.936 252.912,18.936 C259.392,18.936 262.632,22.032 262.632,28.296 L262.632,30.24 L253.704,30.384 C248.088,30.456 243.768,31.536 240.744,33.552 C237.288,35.712 235.632,38.88 235.632,43.128 C235.632,46.152 236.784,48.672 239.088,50.616 C241.32,52.488 244.272,53.424 248.016,53.424 C251.472,53.424 254.568,52.632 257.304,51.12 C259.608,49.824 261.552,48.168 262.992,46.152 L262.992,52.416 L268.392,52.416 L268.392,28.512 C268.392,24.192 267.24,20.808 265.08,18.36 C262.488,15.552 258.6,14.184 253.272,14.184 Z M262.632,34.56 L262.632,37.728 C262.632,40.608 261.264,43.2 258.6,45.432 C255.864,47.736 252.768,48.888 249.24,48.888 C246.936,48.888 245.064,48.312 243.624,47.232 C242.184,46.08 241.536,44.712 241.536,42.984 C241.536,37.584 245.712,34.848 254.064,34.704 L262.632,34.56 Z" id="形状"></path>
                </g>
                <g id="Internet-of-things" transform="translate(0.000000, 72.233843)" opacity="0.65">
                    <polygon id="路径" points="0 0.476 0 24.752 2.754 24.752 2.754 0.476"></polygon>
                    <path d="M15.742,6.698 C14.586,6.698 13.532,6.97 12.58,7.514 C11.628,8.024 10.846,8.772 10.234,9.758 L10.234,7.174 L7.514,7.174 L7.514,24.752 L10.234,24.752 L10.234,14.144 C10.336,12.546 10.846,11.288 11.798,10.336 C12.682,9.452 13.736,9.01 14.96,9.01 C18.02,9.01 19.584,10.71 19.584,14.144 L19.584,24.752 L22.304,24.752 L22.304,13.94 C22.304,9.112 20.094,6.698 15.742,6.698 Z" id="路径"></path>
                    <path d="M31.212,1.496 L28.526,2.618 L28.526,7.174 L24.99,7.174 L24.99,9.452 L28.526,9.452 L28.526,20.638 C28.526,21.964 28.798,22.95 29.376,23.63 C29.988,24.378 31.042,24.752 32.47,24.752 L35.122,24.752 L35.122,22.474 L32.878,22.474 C32.266,22.474 31.824,22.304 31.586,22.032 C31.314,21.76 31.212,21.284 31.212,20.638 L31.212,9.452 L35.564,9.452 L35.564,7.174 L31.212,7.174 L31.212,1.496 Z" id="路径"></path>
                    <path d="M45.832,6.698 C43.282,6.698 41.276,7.616 39.78,9.452 C38.284,11.186 37.57,13.362 37.57,15.946 C37.57,18.802 38.318,21.046 39.882,22.746 C41.378,24.378 43.418,25.228 45.934,25.228 C48.212,25.228 50.082,24.548 51.544,23.256 C52.734,22.168 53.516,20.808 53.924,19.108 L51.204,19.108 C50.762,20.332 50.184,21.25 49.436,21.862 C48.552,22.576 47.362,22.95 45.934,22.95 C44.268,22.95 42.942,22.406 41.99,21.318 C41.038,20.23 40.528,18.7 40.392,16.728 L54.264,16.728 C54.196,13.668 53.516,11.254 52.224,9.554 C50.796,7.65 48.654,6.698 45.832,6.698 Z M45.9,8.976 C49.232,8.976 51.102,10.846 51.442,14.62 L40.46,14.62 C40.63,12.886 41.174,11.526 42.126,10.506 C43.078,9.486 44.336,8.976 45.9,8.976 Z" id="形状"></path>
                    <path d="M65.178,6.698 C63.954,6.698 62.9,7.072 61.982,7.82 C61.234,8.398 60.622,9.214 60.146,10.234 L60.146,7.174 L57.46,7.174 L57.46,24.752 L60.146,24.752 L60.146,15.436 C60.146,13.804 60.588,12.41 61.54,11.254 C62.458,10.03 63.614,9.452 64.974,9.452 C65.824,9.452 66.708,9.554 67.592,9.826 L67.592,7.106 C66.946,6.834 66.13,6.698 65.178,6.698 Z" id="路径"></path>
                    <path d="M78.098,6.698 C76.942,6.698 75.888,6.97 74.936,7.514 C73.984,8.024 73.202,8.772 72.59,9.758 L72.59,7.174 L69.87,7.174 L69.87,24.752 L72.59,24.752 L72.59,14.144 C72.692,12.546 73.202,11.288 74.154,10.336 C75.038,9.452 76.092,9.01 77.316,9.01 C80.376,9.01 81.94,10.71 81.94,14.144 L81.94,24.752 L84.66,24.752 L84.66,13.94 C84.66,9.112 82.45,6.698 78.098,6.698 Z" id="路径"></path>
                    <path d="M96.118,6.698 C93.568,6.698 91.562,7.616 90.066,9.452 C88.57,11.186 87.856,13.362 87.856,15.946 C87.856,18.802 88.604,21.046 90.168,22.746 C91.664,24.378 93.704,25.228 96.22,25.228 C98.498,25.228 100.368,24.548 101.83,23.256 C103.02,22.168 103.802,20.808 104.21,19.108 L101.49,19.108 C101.048,20.332 100.47,21.25 99.722,21.862 C98.838,22.576 97.648,22.95 96.22,22.95 C94.554,22.95 93.228,22.406 92.276,21.318 C91.324,20.23 90.814,18.7 90.678,16.728 L104.55,16.728 C104.482,13.668 103.802,11.254 102.51,9.554 C101.082,7.65 98.94,6.698 96.118,6.698 Z M96.186,8.976 C99.518,8.976 101.388,10.846 101.728,14.62 L90.746,14.62 C90.916,12.886 91.46,11.526 92.412,10.506 C93.364,9.486 94.622,8.976 96.186,8.976 Z" id="形状"></path>
                    <path d="M112.438,1.496 L109.752,2.618 L109.752,7.174 L106.216,7.174 L106.216,9.452 L109.752,9.452 L109.752,20.638 C109.752,21.964 110.024,22.95 110.602,23.63 C111.214,24.378 112.268,24.752 113.696,24.752 L116.348,24.752 L116.348,22.474 L114.104,22.474 C113.492,22.474 113.05,22.304 112.812,22.032 C112.54,21.76 112.438,21.284 112.438,20.638 L112.438,9.452 L116.79,9.452 L116.79,7.174 L112.438,7.174 L112.438,1.496 Z" id="路径"></path>
                    <path d="M138.992,6.698 C136.34,6.698 134.266,7.582 132.702,9.418 C131.206,11.152 130.458,13.328 130.458,15.98 C130.458,18.598 131.206,20.774 132.702,22.474 C134.266,24.31 136.34,25.228 138.992,25.228 C141.61,25.228 143.718,24.31 145.316,22.474 C146.778,20.774 147.526,18.598 147.526,15.98 C147.526,13.328 146.778,11.152 145.282,9.418 C143.718,7.582 141.61,6.698 138.992,6.698 Z M138.992,8.976 C140.828,8.976 142.29,9.69 143.378,11.118 C144.296,12.41 144.772,14.008 144.772,15.98 C144.772,17.884 144.296,19.516 143.378,20.808 C142.29,22.236 140.828,22.95 138.992,22.95 C137.122,22.95 135.66,22.236 134.64,20.808 C133.688,19.516 133.246,17.918 133.246,15.98 C133.246,14.008 133.688,12.41 134.64,11.118 C135.66,9.69 137.122,8.976 138.992,8.976 Z" id="形状"></path>
                    <path d="M158.1,0.476 C156.604,0.476 155.448,0.884 154.666,1.734 C153.918,2.55 153.544,3.672 153.544,5.168 L153.544,7.174 L149.124,7.174 L149.124,9.452 L153.544,9.452 L153.544,24.752 L156.264,24.752 L156.264,9.452 L161.228,9.452 L161.228,7.174 L156.264,7.174 L156.264,5.236 C156.264,4.386 156.434,3.774 156.774,3.4 C157.114,2.992 157.692,2.822 158.44,2.822 L161.466,2.822 L161.466,0.476 L158.1,0.476 Z" id="路径"></path>
                    <path d="M179.758,1.496 L177.072,2.618 L177.072,7.174 L173.536,7.174 L173.536,9.452 L177.072,9.452 L177.072,20.638 C177.072,21.964 177.344,22.95 177.922,23.63 C178.534,24.378 179.588,24.752 181.016,24.752 L183.668,24.752 L183.668,22.474 L181.424,22.474 C180.812,22.474 180.37,22.304 180.132,22.032 C179.86,21.76 179.758,21.284 179.758,20.638 L179.758,9.452 L184.11,9.452 L184.11,7.174 L179.758,7.174 L179.758,1.496 Z" id="路径"></path>
                    <path d="M187.136,0 L187.136,24.752 L189.856,24.752 L189.856,14.722 C189.856,13.09 190.298,11.696 191.216,10.608 C192.1,9.52 193.222,8.976 194.582,8.976 C196.044,8.976 197.166,9.418 197.982,10.302 C198.73,11.186 199.138,12.444 199.138,14.076 L199.138,24.752 L201.858,24.752 L201.858,13.668 C201.858,11.424 201.314,9.69 200.226,8.5 C199.138,7.276 197.54,6.698 195.5,6.698 C194.31,6.698 193.256,6.97 192.304,7.514 C191.284,8.092 190.468,8.942 189.856,10.064 L189.856,0 L187.136,0 Z" id="路径"></path>
                    <path d="M208.284,0.544 C207.706,0.544 207.23,0.714 206.822,1.122 C206.414,1.462 206.244,1.938 206.244,2.55 C206.244,3.128 206.414,3.604 206.822,4.012 C207.23,4.386 207.706,4.59 208.284,4.59 C208.862,4.59 209.338,4.386 209.746,4.012 C210.154,3.604 210.358,3.128 210.358,2.55 C210.358,1.938 210.154,1.462 209.746,1.122 C209.338,0.714 208.862,0.544 208.284,0.544 Z M206.924,7.174 L206.924,24.752 L209.644,24.752 L209.644,7.174 L206.924,7.174 Z" id="形状"></path>
                    <path d="M222.972,6.698 C221.816,6.698 220.762,6.97 219.81,7.514 C218.858,8.024 218.076,8.772 217.464,9.758 L217.464,7.174 L214.744,7.174 L214.744,24.752 L217.464,24.752 L217.464,14.144 C217.566,12.546 218.076,11.288 219.028,10.336 C219.912,9.452 220.966,9.01 222.19,9.01 C225.25,9.01 226.814,10.71 226.814,14.144 L226.814,24.752 L229.534,24.752 L229.534,13.94 C229.534,9.112 227.324,6.698 222.972,6.698 Z" id="路径"></path>
                    <path d="M240.992,6.698 C238.544,6.698 236.606,7.548 235.178,9.282 C233.75,10.914 233.07,12.988 233.07,15.572 C233.07,18.122 233.75,20.196 235.178,21.828 C236.606,23.494 238.544,24.344 240.992,24.344 C243.644,24.344 245.616,23.154 246.908,20.808 L246.908,23.902 C246.908,27.778 245.14,29.75 241.604,29.75 C240.006,29.75 238.816,29.444 238.034,28.866 C237.252,28.322 236.742,27.438 236.538,26.248 L233.818,26.248 C234.124,28.152 234.906,29.58 236.164,30.532 C237.388,31.484 239.224,31.96 241.604,31.96 C246.942,31.96 249.628,29.138 249.628,23.528 L249.628,7.174 L246.908,7.174 L246.908,10.2 C245.616,7.854 243.644,6.698 240.992,6.698 Z M241.4,8.942 C243.134,8.942 244.494,9.554 245.514,10.846 C246.466,12.002 246.942,13.6 246.942,15.572 C246.942,17.476 246.466,19.04 245.514,20.23 C244.494,21.454 243.134,22.066 241.366,22.066 C239.462,22.066 238.068,21.386 237.116,20.094 C236.266,18.938 235.858,17.408 235.858,15.572 C235.858,13.6 236.334,12.002 237.286,10.846 C238.272,9.554 239.632,8.942 241.4,8.942 Z" id="形状"></path>
                    <path d="M260.066,6.698 C258.094,6.698 256.462,7.14 255.238,8.024 C253.912,8.908 253.266,10.064 253.266,11.56 C253.266,13.056 253.912,14.178 255.272,14.994 C256.088,15.538 257.55,16.048 259.624,16.558 C261.528,17.034 262.786,17.408 263.364,17.68 C264.452,18.224 265.03,18.972 265.03,19.958 C265.03,21.93 263.432,22.95 260.304,22.95 C258.808,22.95 257.686,22.678 256.938,22.134 C256.19,21.522 255.68,20.536 255.476,19.142 L252.824,19.142 C253.232,23.188 255.748,25.228 260.372,25.228 C265.336,25.228 267.818,23.392 267.818,19.788 C267.818,18.258 267.104,17.068 265.71,16.184 C264.792,15.606 263.296,15.062 261.188,14.552 C259.42,14.076 258.196,13.702 257.55,13.396 C256.53,12.886 256.054,12.24 256.054,11.492 C256.054,10.71 256.428,10.098 257.176,9.656 C257.856,9.18 258.808,8.976 260.032,8.976 C261.426,8.976 262.514,9.248 263.262,9.792 C263.942,10.268 264.384,11.084 264.622,12.172 L267.274,12.172 C266.798,8.5 264.418,6.698 260.066,6.698 Z" id="路径"></path>
                </g>
            </g>
        </g>
    </g>
</svg>