<?xml version="1.0" standalone="no"?><!DOCTYPE svg PUBLIC "-//W3C//DTD SVG 1.1//EN" "http://www.w3.org/Graphics/SVG/1.1/DTD/svg11.dtd"><svg t="1712909318338" class="icon" viewBox="0 0 1024 1024" version="1.1" xmlns="http://www.w3.org/2000/svg" p-id="1183" xmlns:xlink="http://www.w3.org/1999/xlink" width="200" height="200"><path d="M973.924152 946.985389H28.38994a25.548902 25.548902 0 0 1-22.135569-38.323353L479.031697 89.789062a25.548902 25.548902 0 0 1 44.250698 0l130.299401 225.709221a25.548902 25.548902 0 1 1-44.250698 25.548903l-108.184272-187.385869L72.640639 895.887585h857.032814L692.886228 485.572216a25.548902 25.548902 0 0 1 44.250698-25.548903l259.02499 448.638723a25.548902 25.548902 0 0 1-22.135569 38.323353z" p-id="1184"></path><path d="M501.146826 676.228343a25.548902 25.548902 0 0 1-25.548902-25.548902v-268.161277a25.548902 25.548902 0 0 1 51.097805 0v268.161277a25.548902 25.548902 0 0 1-25.548903 25.548902z" p-id="1185"></path><path d="M502.066587 774.74491m-32.416447 0a32.416447 32.416447 0 1 0 64.832894 0 32.416447 32.416447 0 1 0-64.832894 0Z" p-id="1186"></path><path d="M1022.978044 1024H1.021956a1.021956 1.021956 0 0 1-1.021956-1.021956V1.021956A1.021956 1.021956 0 0 1 1.021956 0h1021.956088a1.021956 1.021956 0 0 1 1.021956 1.021956v1021.956088a1.021956 1.021956 0 0 1-1.021956 1.021956zM2.043912 1021.956088h1019.912176V2.043912H2.043912z" p-id="1187"></path></svg>