<?xml version="1.0" standalone="no"?><!DOCTYPE svg PUBLIC "-//W3C//DTD SVG 1.1//EN" "http://www.w3.org/Graphics/SVG/1.1/DTD/svg11.dtd"><svg t="1712908985451" class="icon" viewBox="0 0 1024 1024" version="1.1" xmlns="http://www.w3.org/2000/svg" p-id="1034" xmlns:xlink="http://www.w3.org/1999/xlink" width="200" height="200"><path d="M980.055888 739.896208a20.439122 20.439122 0 0 1-20.439122-20.439122c0-87.888224-19.846387-174.570539-57.393053-250.706268-36.279441-73.580838-88.480958-136.36982-150.942915-181.683353a20.439122 20.439122 0 0 1 23.995529-33.090938c141.02994 102.318244 225.218683 276.336926 225.218683 465.480559a20.439122 20.439122 0 0 1-20.439122 20.439122zM41.9002 739.896208a20.439122 20.439122 0 0 1-20.439122-20.439122c0-147.161677 50.607265-285.698044 142.501557-389.998882C256.490539 224.421557 379.738443 166.578842 510.978044 166.578842a438.623553 438.623553 0 0 1 168.193533 33.479282 20.439122 20.439122 0 0 1-15.615489 37.791936A397.643114 397.643114 0 0 0 510.978044 207.457086C263.664671 207.457086 62.339321 437.131497 62.339321 719.457086a20.439122 20.439122 0 0 1-20.439121 20.439122zM547.768463 739.896208a20.439122 20.439122 0 0 1-20.439122-20.439122 17.373253 17.373253 0 0 0-34.746507 0 20.439122 20.439122 0 0 1-40.878243 0 58.251497 58.251497 0 0 1 116.502994 0 20.439122 20.439122 0 0 1-20.439122 20.439122z" p-id="1035"></path><path d="M509.935649 702.083832a20.439122 20.439122 0 0 1-17.352815-31.149221l218.698603-355.640719a20.439122 20.439122 0 0 1 34.746507 21.4202l-218.698603 355.640718a20.439122 20.439122 0 0 1-17.393692 9.729022zM980.055888 753.181637h-938.155688a20.439122 20.439122 0 0 1 0-40.878244h938.155688a20.439122 20.439122 0 0 1 0 40.878244zM121.408383 615.31976h-0.960638l-66.427146-3.065868a20.439122 20.439122 0 1 1 1.880399-40.878243l66.427146 3.065868a20.439122 20.439122 0 0 1-0.919761 40.878243zM160.242715 514.370938a20.439122 20.439122 0 0 1-9.524631-2.350499L94.510499 482.363273a20.439122 20.439122 0 1 1 19.069701-36.156806l56.207584 29.636727a20.439122 20.439122 0 0 1-9.545069 38.507305zM241.733493 392.982994a20.439122 20.439122 0 0 1-12.713134-4.435289l-39.856287-31.680639A20.439122 20.439122 0 0 1 214.610778 324.859401l39.856288 31.680639a20.439122 20.439122 0 0 1-12.733573 36.442954zM898.851257 615.31976a20.439122 20.439122 0 0 1-0.940199-40.878243l66.427146-3.065868a20.439122 20.439122 0 0 1 1.880399 40.878243l-66.427146 3.065868zM860.016926 514.370938a20.439122 20.439122 0 0 1-9.54507-38.507305l56.207585-29.636727a20.439122 20.439122 0 1 1 19.069701 36.136367l-56.207585 29.636727a20.439122 20.439122 0 0 1-9.524631 2.370938zM778.526148 392.982994a20.439122 20.439122 0 0 1-12.733573-36.442954l39.856287-31.680639a20.439122 20.439122 0 0 1 25.446707 32.007665l-39.856288 31.680639a20.439122 20.439122 0 0 1-12.713133 4.435289zM344.419641 319.872255a20.439122 20.439122 0 0 1-18.681358-12.07952l-19.641996-43.903234a20.439122 20.439122 0 1 1 37.280959-16.719202l19.662435 43.903234a20.439122 20.439122 0 0 1-18.640479 28.798722zM512 266.730539a20.439122 20.439122 0 0 1-20.439122-20.071218l-1.021956-58.251497a20.439122 20.439122 0 0 1 40.878244-0.735808l1.021956 58.251497a20.439122 20.439122 0 0 1-20.071218 20.807026z" p-id="1036"></path><path d="M1022.978044 1024H1.021956a1.021956 1.021956 0 0 1-1.021956-1.021956V1.021956A1.021956 1.021956 0 0 1 1.021956 0h1021.956088a1.021956 1.021956 0 0 1 1.021956 1.021956v1021.956088a1.021956 1.021956 0 0 1-1.021956 1.021956zM2.043912 1021.956088h1019.912176V2.043912H2.043912z" fill="#FFFFFF" p-id="1037"></path></svg>