<?xml version="1.0" standalone="no"?><!DOCTYPE svg PUBLIC "-//W3C//DTD SVG 1.1//EN" "http://www.w3.org/Graphics/SVG/1.1/DTD/svg11.dtd"><svg t="1712909196669" class="icon" viewBox="0 0 1024 1024" version="1.1" xmlns="http://www.w3.org/2000/svg" p-id="1181" xmlns:xlink="http://www.w3.org/1999/xlink" width="200" height="200"><path d="M1022.978044 1024H1.021956a1.021956 1.021956 0 0 1-1.021956-1.021956V1.021956A1.021956 1.021956 0 0 1 1.021956 0h1021.956088a1.021956 1.021956 0 0 1 1.021956 1.021956v1021.956088a1.021956 1.021956 0 0 1-1.021956 1.021956zM2.043912 1021.956088h1019.912176V2.043912H2.043912z" p-id="1182"></path><path d="M719.968064 738.874251h-415.936128a20.439122 20.439122 0 0 1-20.439122-20.439121V302.499002a20.439122 20.439122 0 0 1 20.439122-20.439122h415.936128a20.439122 20.439122 0 0 1 20.439122 20.439122v415.936128a20.439122 20.439122 0 0 1-20.439122 20.439121z m-395.497006-40.878243h375.057884V322.938124h-375.057884z" p-id="1183"></path><path d="M436.37525 438.419162H302.499002a20.439122 20.439122 0 0 1-20.439122-20.439122V302.499002a20.439122 20.439122 0 0 1 20.439122-20.439122h133.876248a20.439122 20.439122 0 0 1 20.439121 20.439122v115.481038a20.439122 20.439122 0 0 1-20.439121 20.439122z m-113.437126-40.878244h92.998004V322.938124H322.938124zM718.43513 438.419162H584.558882a20.439122 20.439122 0 0 1-20.439122-20.439122V302.499002a20.439122 20.439122 0 0 1 20.439122-20.439122h133.876248a20.439122 20.439122 0 0 1 20.439121 20.439122v115.481038a20.439122 20.439122 0 0 1-20.439121 20.439122z m-113.437126-40.878244h92.998004V322.938124H604.998004zM436.37525 736.830339H302.499002a20.439122 20.439122 0 0 1-20.439122-20.439121V600.91018a20.439122 20.439122 0 0 1 20.439122-20.439122h133.876248a20.439122 20.439122 0 0 1 20.439121 20.439122v115.481038a20.439122 20.439122 0 0 1-20.439121 20.439121z m-113.437126-40.878243h92.998004V621.349301H322.938124zM718.43513 736.830339H584.558882a20.439122 20.439122 0 0 1-20.439122-20.439121V600.91018a20.439122 20.439122 0 0 1 20.439122-20.439122h133.876248a20.439122 20.439122 0 0 1 20.439121 20.439122v115.481038a20.439122 20.439122 0 0 1-20.439121 20.439121z m-113.437126-40.878243h92.998004V621.349301H604.998004zM358.706587 462.067226h67.449102v35.625389h-67.449102zM478.275449 462.067226h67.449102v35.625389h-67.449102zM591.712575 462.067226h67.449102v35.625389h-67.449102zM358.706587 535.648064h67.449102v35.625389h-67.449102zM478.275449 535.648064h67.449102v35.625389h-67.449102zM591.712575 535.648064h67.449102v35.625389h-67.449102zM112.41517 207.457086A97.085828 97.085828 0 1 1 209.500998 110.371257 97.208463 97.208463 0 0 1 112.41517 207.457086z m0-153.293413A56.207585 56.207585 0 1 0 168.622754 110.371257 56.289341 56.289341 0 0 0 112.41517 54.163673z" p-id="1184"></path><path d="M304.542914 327.025948a20.439122 20.439122 0 0 1-14.450459-5.988663l-140.007984-140.007984a20.439122 20.439122 0 0 1 28.900918-28.900918l140.007984 140.007984A20.439122 20.439122 0 0 1 304.542914 327.025948zM404.326707 197.707625a20.439122 20.439122 0 0 1-16.964471-31.803274 150.043593 150.043593 0 0 1 249.214211-0.633612 20.439122 20.439122 0 1 1-33.867625 22.871377 109.185788 109.185788 0 0 0-181.356327 0.4701 20.439122 20.439122 0 0 1-17.025788 9.095409z" p-id="1185"></path><path d="M451.47976 230.63505a20.439122 20.439122 0 0 1-13.796407-35.502755 113.478004 113.478004 0 0 1 147.652216-4.762315 20.439122 20.439122 0 0 1-25.630659 31.864591 72.579321 72.579321 0 0 0-94.428742 3.045429 20.25517 20.25517 0 0 1-13.796408 5.35505zM104.239521 1000.49501A97.085828 97.085828 0 1 1 201.325349 903.409182 97.208463 97.208463 0 0 1 104.239521 1000.49501z m0-153.293413A56.207585 56.207585 0 1 0 160.447106 903.409182 56.289341 56.289341 0 0 0 104.239521 847.201597z" p-id="1186"></path><path d="M160.447106 871.728543a20.439122 20.439122 0 0 1-14.450459-34.889581l140.007984-140.007984a20.439122 20.439122 0 0 1 28.900918 28.900918l-140.007984 140.007984a20.439122 20.439122 0 0 1-14.450459 5.988663zM171.116327 631.916327a20.439122 20.439122 0 0 1-11.343712-3.454211 150.043593 150.043593 0 0 1-0.633613-249.214212 20.439122 20.439122 0 1 1 22.871377 33.867625 109.185788 109.185788 0 0 0 0.4701 181.356327 20.439122 20.439122 0 0 1-11.364152 37.444471z" p-id="1187"></path><path d="M204.084631 584.783713a20.439122 20.439122 0 0 1-15.084072-6.642715 113.478004 113.478004 0 0 1-4.762315-147.652216 20.439122 20.439122 0 0 1 31.86459 25.630659 72.579321 72.579321 0 0 0 3.045429 94.428743 20.439122 20.439122 0 0 1-15.063632 34.235529zM911.58483 1012.758483a97.085828 97.085828 0 1 1 97.085829-97.085828 97.208463 97.208463 0 0 1-97.085829 97.085828z m0-153.293413a56.207585 56.207585 0 1 0 56.207585 56.207585 56.289341 56.289341 0 0 0-56.207585-56.207585z" p-id="1188"></path><path d="M859.46507 879.904192a20.439122 20.439122 0 0 1-14.450459-5.988663l-140.007984-140.007984a20.439122 20.439122 0 0 1 28.900918-28.900918l140.007984 140.007984a20.439122 20.439122 0 0 1-14.450459 34.889581zM511.816048 926.914172a149.941397 149.941397 0 0 1-124.392495-66.140998A20.439122 20.439122 0 1 1 421.291178 838.003992a109.185788 109.185788 0 0 0 181.356327-0.4701 20.439122 20.439122 0 1 1 33.990259 22.707864 149.859641 149.859641 0 0 1-124.821716 66.672416z" p-id="1189"></path><path d="M509.731257 860.670978a113.764152 113.764152 0 0 1-71.066826-24.997046 20.439122 20.439122 0 0 1 25.630659-31.864591 72.579321 72.579321 0 0 0 94.428742-3.045429 20.439122 20.439122 0 0 1 27.592815 30.147705 113.1101 113.1101 0 0 1-76.58539 29.759361zM913.628743 207.457086A97.085828 97.085828 0 1 1 1010.714571 110.371257a97.208463 97.208463 0 0 1-97.085828 97.085829z m0-153.293413A56.207585 56.207585 0 1 0 969.836327 110.371257 56.289341 56.289341 0 0 0 913.628743 54.163673z" p-id="1190"></path><path d="M717.413174 322.938124a20.439122 20.439122 0 0 1-14.450459-34.889581l140.007984-140.007984a20.439122 20.439122 0 0 1 28.900918 28.900918l-140.007984 140.007984A20.439122 20.439122 0 0 1 717.413174 322.938124zM847.303792 638.048064a20.439122 20.439122 0 0 1-11.445908-37.383154 109.185788 109.185788 0 0 0-0.4701-181.356327 20.439122 20.439122 0 0 1 22.707865-33.99026 150.043593 150.043593 0 0 1 0.633612 249.214212 20.296048 20.296048 0 0 1-11.425469 3.515529z" p-id="1191"></path><path d="M817.687505 590.915449a20.439122 20.439122 0 0 1-15.922076-33.254451 72.579321 72.579321 0 0 0-3.045429-94.428743 20.439122 20.439122 0 0 1 30.147705-27.592814 113.478004 113.478004 0 0 1 4.762315 147.652216 20.439122 20.439122 0 0 1-15.942515 7.623792z" p-id="1192"></path></svg>