<?xml version="1.0" standalone="no"?><!DOCTYPE svg PUBLIC "-//W3C//DTD SVG 1.1//EN" "http://www.w3.org/Graphics/SVG/1.1/DTD/svg11.dtd"><svg t="1712909407062" class="icon" viewBox="0 0 1024 1024" version="1.1" xmlns="http://www.w3.org/2000/svg" p-id="1478" xmlns:xlink="http://www.w3.org/1999/xlink" width="200" height="200"><path d="M1024 1024H0V0h1024zM2.043912 1021.956088h1019.912176V2.043912H2.043912z" p-id="1479"></path><path d="M264.114331 929.571257a27.838084 27.838084 0 0 1-27.838083-27.838083V780.365669H155.439521a143.58483 143.58483 0 0 1-143.421317-143.421318V237.85006A143.58483 143.58483 0 0 1 155.439521 94.428743h363.244072a27.838084 27.838084 0 0 1 0 55.676167H155.439521a87.888224 87.888224 0 0 0-87.74515 87.74515v399.094291a87.888224 87.888224 0 0 0 87.74515 87.74515h108.67481a27.838084 27.838084 0 0 1 27.838084 27.838084v95.552894L459.88024 729.676647a27.981158 27.981158 0 0 1 16.024271-5.068902H868.662675a87.888224 87.888224 0 0 0 87.745149-87.74515V237.85006A87.888224 87.888224 0 0 0 868.662675 150.10491h-176.450938a27.838084 27.838084 0 0 1 0-55.676167H868.662675a143.58483 143.58483 0 0 1 143.421317 143.421317v399.094291A143.58483 143.58483 0 0 1 868.662675 780.365669H484.77509l-204.636487 144.136686a27.756327 27.756327 0 0 1-16.024272 5.068902z" p-id="1480"></path><path d="M754.755449 475.250459H200.303393a27.838084 27.838084 0 0 1 0-55.676168h554.452056a27.838084 27.838084 0 0 1 0 55.676168z" p-id="1481"></path><path d="M760.335329 469.691018a27.756327 27.756327 0 0 1-19.682874-8.175649l-148.122315-148.081437a27.838084 27.838084 0 1 1 39.365748-39.365748l148.101876 148.101876A27.838084 27.838084 0 0 1 760.335329 469.691018z" p-id="1482"></path><path d="M612.213014 614.440878a27.838084 27.838084 0 0 1-19.682874-47.520958l148.101876-148.101876a27.838084 27.838084 0 0 1 39.365748 39.365748l-148.101876 148.101877a27.735888 27.735888 0 0 1-19.682874 8.155209z" p-id="1483"></path></svg>