<?xml version="1.0" standalone="no"?><!DOCTYPE svg PUBLIC "-//W3C//DTD SVG 1.1//EN" "http://www.w3.org/Graphics/SVG/1.1/DTD/svg11.dtd"><svg t="1712909277236" class="icon" viewBox="0 0 1024 1024" version="1.1" xmlns="http://www.w3.org/2000/svg" p-id="1034" xmlns:xlink="http://www.w3.org/1999/xlink" width="200" height="200"><path d="M1024 1024H0V0h1024zM2.043912 1021.956088h1019.912176V2.043912H2.043912z" p-id="1035"></path><path d="M473.288303 832.260599H50.075848a25.548902 25.548902 0 0 1-25.548902-25.548902v-607.041917a25.548902 25.548902 0 0 1 25.548902-25.548902h923.848304a25.548902 25.548902 0 0 1 25.548902 25.548902v303.520959a25.548902 25.548902 0 1 1-51.097804 0v-277.972056H75.62475v555.944111h397.663553a25.548902 25.548902 0 0 1 0 51.097805z" p-id="1036"></path><path d="M171.688623 640.132854a25.548902 25.548902 0 0 1-19.805509-41.65493l129.62491-159.42515a25.548902 25.548902 0 0 1 32.436886-6.131736l211.422276 120.07984 299.024351-265.708583A25.548902 25.548902 0 1 1 858.443114 325.390818l-312.718563 277.972056a25.528463 25.528463 0 0 1-29.575409 3.127186l-208.479042-118.424272-116.094212 142.644631a25.467146 25.467146 0 0 1-19.887265 9.422435zM602.586188 732.762954A25.548902 25.548902 0 0 1 582.51497 691.455489c3.413333-4.353533 85.312894-106.692216 209.092216-102.195609s186.323034 97.98515 188.918802 101.970779a25.548902 25.548902 0 0 1-42.922156 27.878962c-2.043912-3.004551-51.097804-75.297725-147.917924-78.772375-97.494611-3.556407-166.415329 81.960878-167.110259 82.819321a25.58978 25.58978 0 0 1-19.989461 9.606387z" p-id="1037"></path><path d="M772.823633 849.879122c-114.786108 0-192.270818-90.790579-195.643274-94.837525a25.548902 25.548902 0 0 1 39.120479-32.866108c0.69493 0.838004 71.843513 83.391617 169.011098 76.135729s144.095808-81.613413 146.057964-84.781477a25.548902 25.548902 0 1 1 43.576208 26.570858c-2.473134 4.087824-62.094052 99.783792-185.812056 109.083593q-8.359601 0.69493-16.310419 0.69493z" p-id="1038"></path><path d="M791.423234 784.862275q-2.043912 0-3.985629-0.122634a71.536926 71.536926 0 1 1 75.502116-67.449102A71.741317 71.741317 0 0 1 791.423234 784.862275z m0-92.078243a20.439122 20.439122 0 0 0-20.439122 19.355848 20.439122 20.439122 0 0 0 19.253652 21.624591 20.561756 20.561756 0 0 0 21.685909-19.335409 20.439122 20.439122 0 0 0-19.396727-21.542834z m46.06978 23.014451z" p-id="1039"></path></svg>