<?xml version="1.0" standalone="no"?><!DOCTYPE svg PUBLIC "-//W3C//DTD SVG 1.1//EN" "http://www.w3.org/Graphics/SVG/1.1/DTD/svg11.dtd"><svg t="1712909341533" class="icon" viewBox="0 0 1024 1024" version="1.1" xmlns="http://www.w3.org/2000/svg" p-id="1331" xmlns:xlink="http://www.w3.org/1999/xlink" width="200" height="200"><path d="M1022.978044 1024H1.021956a1.021956 1.021956 0 0 1-1.021956-1.021956V1.021956A1.021956 1.021956 0 0 1 1.021956 0h1021.956088a1.021956 1.021956 0 0 1 1.021956 1.021956v1021.956088a1.021956 1.021956 0 0 1-1.021956 1.021956zM2.043912 1021.956088h1019.912176V2.043912H2.043912z" p-id="1332"></path><path d="M679.989142 699.876407a20.439122 20.439122 0 0 1-9.156727-38.732136 163.512974 163.512974 0 0 0 13.081038-285.064431 20.439122 20.439122 0 1 1 21.542834-34.746507 204.391218 204.391218 0 0 1-16.351297 356.478723 20.316487 20.316487 0 0 1-9.115848 2.064351z" p-id="1333"></path><path d="M781.755529 886.035928a20.439122 20.439122 0 0 1-9.442874-38.568623 378.123752 378.123752 0 0 0 0-671.016367 20.439122 20.439122 0 1 1 18.865309-36.238563 419.001996 419.001996 0 0 1 0 743.513932 20.234731 20.234731 0 0 1-9.422435 2.309621zM555.944112 1016.846307a20.439122 20.439122 0 0 1-14.470898-5.988662l-217.267865-217.267865a20.439122 20.439122 0 0 1 28.900918-28.921357L535.50499 947.067146V97.73988l-232.740279 221.355689a20.439122 20.439122 0 0 1-14.102994 5.641197H41.9002v377.633214h156.481916a20.439122 20.439122 0 0 1 0 40.878244H21.461078a20.439122 20.439122 0 0 1-20.439122-20.439122V304.297645a20.439122 20.439122 0 0 1 20.439122-20.439122h259.045429L541.7798 35.257485A20.439122 20.439122 0 0 1 576.383234 50.075848v946.331338a20.439122 20.439122 0 0 1-20.439122 20.439121z" p-id="1334"></path></svg>