<?xml version="1.0" standalone="no"?><!DOCTYPE svg PUBLIC "-//W3C//DTD SVG 1.1//EN" "http://www.w3.org/Graphics/SVG/1.1/DTD/svg11.dtd"><svg t="1699263909211" class="icon" viewBox="0 0 1024 1024" version="1.1" xmlns="http://www.w3.org/2000/svg" p-id="2718" xmlns:xlink="http://www.w3.org/1999/xlink" width="200" height="200"><path d="M102.389807 0h819.169421c68.293848 0 102.41529 34.146924 102.415289 102.389807v819.169421c0 68.293848-34.146924 102.41529-102.415289 102.415289H102.389807C34.146924 1023.974517 0 989.827593 0 921.559228V102.389807C0 34.146924 34.146924 0 102.389807 0z" fill="#10C55B" p-id="2719"></path><path d="M522.396974 573.362532h-25.482779V688.035039h25.482779v-114.672507zM484.172805 560.621143v140.155285h50.965559V560.621143h-50.965559z m38.224169-229.345013h-25.482779v114.672506h25.482779V331.27613z m-38.224169-12.74139V458.690026h50.965559v-140.155286h-50.965559z m184.622736 297.71531l12.741389-22.068087-102.058531-58.916186-12.741389 22.068087 102.058531 58.916186z m30.146127-26.731436l-124.101134-71.657575-25.48278 44.136174 124.101135 71.657575 25.482779-44.136174zM443.655186 486.262393l12.74139-22.068087-105.880948-61.133187-12.741389 22.068087 105.880947 61.15867z m30.146128-26.731435l-127.949034-73.874577-25.48278 44.136173 127.949035 73.90006 25.482779-44.161656z m207.735616-34.401752l-12.741389-22.068087-104.224567 60.164842 12.741389 22.068086 104.224567-60.164841z m-8.078041-39.472825l-126.267171 72.931714 25.482779 44.136173 126.267171-72.931714-25.482779-44.136173z m-224.503285 173.767071l-12.741389-22.093569-98.465459 56.85208 12.741389 22.068087 98.465459-56.826598z m-8.078041-39.498308l-120.533545 69.59347 25.482779 44.136174 120.533545-69.567987-25.482779-44.136174z" fill="#B6FFD4" p-id="2720"></path><path d="M509.655584 560.621143a50.965558 50.965558 0 1 0 0-101.931117 50.965558 50.965558 0 0 0 0 101.931117z m0 50.965558a101.931117 101.931117 0 1 0 0-203.862234 101.931117 101.931117 0 0 0 0 203.862234z m203.862234-191.120844a25.482779 25.482779 0 1 0 0-50.965558 25.482779 25.482779 0 0 0 0 50.965558z m0 50.965558a76.448338 76.448338 0 1 0 0-152.896675 76.448338 76.448338 0 0 0 0 152.896675z m0 178.379455a25.482779 25.482779 0 1 0 0-50.965558 25.482779 25.482779 0 0 0 0 50.965558z m0 50.965558a76.448338 76.448338 0 1 0 0-152.896675 76.448338 76.448338 0 0 0 0 152.896675z m-407.724467-50.965558a25.482779 25.482779 0 1 0 0-50.965558 25.482779 25.482779 0 0 0 0 50.965558z m0 50.965558a76.448338 76.448338 0 1 0 0-152.896675 76.448338 76.448338 0 0 0 0 152.896675z m0-280.310571a25.482779 25.482779 0 1 0 0-50.965558 25.482779 25.482779 0 0 0 0 50.965558z m0 50.965558a76.448338 76.448338 0 1 0 0-152.896675 76.448338 76.448338 0 0 0 0 152.896675z m203.862233-165.638064a25.482779 25.482779 0 1 0 0-50.965559 25.482779 25.482779 0 0 0 0 50.965559z m0 50.965558a76.448338 76.448338 0 1 0 0-152.896675 76.448338 76.448338 0 0 0 0 152.896675z m0 407.724467a25.482779 25.482779 0 1 0 0-50.965558 25.482779 25.482779 0 0 0 0 50.965558z m0 50.965559a76.448338 76.448338 0 1 0 0-152.896675 76.448338 76.448338 0 0 0 0 152.896675z" fill="#FFFFFF" p-id="2721"></path></svg>